# xmcd
#
# Track frame offsets: 
#        150
#        16663
#        33856
#        46599
#        71212
#        94920
#        108383
#        123866
#        136359
#        170062
#        190130
#        202133
#        213811
#        225714
#        247667
#        268210
#
# Disc length: 3958 seconds
#
# Revision: 0
# Processed by: cddbd v1.5.2PL0 Copyright (c) Steve Scherf et al.
# Submitted via: ExactAudioCopy v1.3
#
DISCID=da0f7410
DTITLE=Elvis Costello - (2002.10.06) The Backyard
DYEAR=1900
DGENRE=Alt. Rock
TTITLE0=I Hope You're Happy Now
TTITLE1=Tear Off Your Own Head
TTITLE2=Accidents Will Happen
TTITLE3=Party Girl
TTITLE4=Spooky Girlfriend
TTITLE5=(I Don't Want to Go to) Chelsea
TTITLE6=45
TTITLE7=Green Shirt
TTITLE8=15 Petals
TTITLE9=The Judgement
TTITLE10=I Can't Stand Up for Falling Down
TTITLE11=High Fidelity
TTITLE12=(The Angels Wanna Wear My) Red Shoes
TTITLE13=Uncomplicated
TTITLE14=Lipstick Vogue
TTITLE15=Watching the Detectives
EXTD=
EXTT0=
EXTT1=
EXTT2=
EXTT3=
EXTT4=
EXTT5=
EXTT6=
EXTT7=
EXTT8=
EXTT9=
EXTT10=
EXTT11=
EXTT12=
EXTT13=
EXTT14=
EXTT15=
PLAYORDER=
